<svg width="1824" height="253" viewBox="0 0 1824 253" fill="none" xmlns="http://www.w3.org/2000/svg">
<path d="M1071.81 234.438L1202.95 16.9133H1260.12L1217.86 176.639L1364.85 16.9133H1433.83L1302.39 234.438H1257.64L1350.55 83.1031L1207.61 234.438H1167.21L1209.47 80.9278L1116.25 234.438H1071.81Z" fill="#66757F"/>
<path d="M960.442 239.41C906.683 239.41 876.229 195.905 908.547 141.835L984.992 16.9133H1032.23L944.283 157.683C931.232 182.232 942.108 199.013 966.347 199.013C992.76 199.013 1008.92 181.922 1026.32 153.333L1109.29 16.9133H1156.53L1069.52 157.683C1034.71 217.036 1009.54 239.41 960.442 239.41Z" fill="#66757F"/>
<path d="M761.363 234.438L892.499 16.9133H939.734L808.286 234.438H761.363Z" fill="#66757F"/>
<path d="M542.26 234.438L673.396 16.9133H729.02C765.378 16.9133 799.871 36.1798 799.871 84.3461C799.871 146.185 729.953 234.438 628.959 234.438H542.26ZM613.421 194.041H638.903C706.336 194.041 752.637 129.094 752.637 91.1826C752.637 66.6333 738.032 57.3108 718.766 57.3108H696.392L613.421 194.041Z" fill="#66757F"/>
<path d="M294.455 234.438L506.076 16.9133H566.361L515.088 234.438H470.029L483.702 177.882H402.907L350.39 234.438H294.455ZM439.575 138.727H493.335L512.602 60.4183L439.575 138.727Z" fill="#66757F"/>
<path d="M198.667 234.438L306.808 57.3108H250.873V16.9133H421.164V57.3108H353.731L245.59 234.438H198.667Z" fill="#66757F"/>
<path d="M76.5303 239.411C9.40831 239.411 -10.1689 186.583 6.30081 148.361H51.0488C38.3081 176.95 51.0488 201.189 79.9486 201.189C103.876 201.189 115.685 185.03 115.685 167.938C115.685 156.751 110.402 147.74 101.08 139.349L90.2033 129.095C82.4346 121.947 64.4111 108.896 64.4111 81.5498C64.4111 44.5705 92.6893 11.9417 145.517 11.9417C200.52 11.9417 230.662 49.2318 212.95 95.5335H168.202C181.564 66.6338 165.405 49.5425 142.72 49.5425C121.589 49.5425 109.159 62.594 109.159 80.9283C109.159 92.1153 116.306 99.2625 125.318 107.031L138.059 119.151C147.692 129.405 160.744 142.768 160.744 165.142C160.744 203.053 131.533 239.411 76.5303 239.411Z" fill="#66757F"/>
<path fill-rule="evenodd" clip-rule="evenodd" d="M1775.33 52.2701L1723.74 86.8659C1728.76 90.7812 1731.57 95.0791 1731.61 99.5581C1731.71 109.929 1717.06 119.023 1694.24 124.708C1750.4 117.02 1789.79 97.8638 1789.56 75.0959C1789.49 66.9958 1784.4 59.2629 1775.33 52.2701ZM1758.19 42.049C1747.09 52.3685 1724.64 73.2768 1715.7 81.8635C1706.82 77.2838 1694.68 73.4389 1680.35 70.7514L1701.48 25.1558C1723.89 29.1668 1743.32 34.9881 1758.19 42.049ZM1678.6 21.822C1664.48 20.2074 1649.52 19.2733 1634.05 19.1332C1621.25 19.0188 1608.81 19.4543 1596.92 20.3786L1607.42 67.5708C1616.02 66.8159 1625.1 66.4234 1634.51 66.5039C1646.67 66.6146 1658.27 67.5004 1669.01 68.9598L1678.6 21.822ZM1573.72 22.8888C1549.06 26.3497 1527.69 32.0304 1511.58 39.2563C1522.4 49.3232 1545.18 70.5396 1554.83 79.79C1564.96 74.9486 1579.13 71.144 1595.77 68.8692L1573.72 22.8888ZM1494.27 49.0794C1484.79 56.0786 1479.53 63.9548 1479.61 72.3179C1479.83 95.0895 1519.62 114.961 1575.97 123.654C1553 117.559 1538.16 108.198 1538.06 97.8269C1538.02 93.0862 1541.12 88.6273 1546.61 84.6314L1494.27 49.0794Z" fill="#66757F"/>
<path fill-rule="evenodd" clip-rule="evenodd" d="M1823.43 65.7391C1823.43 54.268 1799.08 0.656799 1628.76 0.656494C1444.42 0.656494 1446.38 61.2496 1446.38 61.2496V188.368C1446.49 199.619 1456.99 210.371 1472.89 219.794L1498.09 231.553C1505.79 234.438 1514.2 237.095 1523.26 239.503L1560.98 247.411C1569.3 248.729 1577.97 249.819 1586.86 250.732C1586.86 250.732 1598.39 252.919 1635.73 252.919C1673.07 252.919 1684.98 251.646 1684.98 251.646C1694.11 250.867 1703.01 249.912 1711.53 248.688L1749.09 241.35C1758.1 239.077 1766.47 236.545 1774.1 233.774L1799.08 222.378C1814.93 213.111 1822.87 202.421 1822.76 191.108C1822.76 191.108 1823.43 77.2101 1823.43 65.7391ZM1816.02 68.3918C1816.36 101.728 1735.4 128.018 1635.19 127.122C1534.97 126.227 1453.47 98.4566 1453.14 65.1407C1452.81 31.8047 1533.78 5.51428 1633.98 6.41008C1734.18 7.31595 1815.69 35.0658 1816.02 68.3918ZM1635.5 150.318C1662.22 150.55 1684 161.722 1684.43 205.607C1684.62 223.543 1684.16 237.01 1683.18 247.106C1668.22 248.374 1652.59 249.058 1636.36 248.917C1619.8 248.767 1603.82 247.78 1588.57 246.21C1588.13 234.534 1587.83 220.906 1587.67 204.741C1587.23 160.857 1608.78 150.077 1635.5 150.318ZM1563.04 184.671L1563.05 185.899V185.084L1563.62 242.989C1550.6 240.916 1538.47 238.309 1527.26 235.319L1526.74 182.799L1526.73 182.125L1526.68 177.394L1526.66 175.804L1526.64 173.75V173.378C1526.42 151.426 1562.82 162.729 1563.04 184.671ZM1744.37 175.331L1744.38 175.914L1744.37 175.723L1744.98 237.121C1733.82 239.949 1721.74 242.365 1708.77 244.237L1708.19 186.332V185.97C1707.97 164.027 1744.14 153.388 1744.37 175.331ZM1478.03 150.993C1477.82 129.051 1502.11 140.243 1502.34 162.185C1502.44 173.159 1502.47 175.901 1502.47 175.901C1502.47 175.901 1502.46 174.861 1502.45 174.062L1502.98 227.619C1493.72 224.117 1485.53 220.302 1478.67 216.216L1478.03 151.406V150.993ZM1768.57 176.015L1768.45 164.571C1768.23 142.629 1792.32 131.869 1792.53 153.811L1793.18 218.712C1786.4 222.708 1778.29 226.402 1769.1 229.763L1768.57 176.015Z" fill="#66757F"/>
</svg>
