<svg width="378" height="253" viewBox="0 0 378 253" fill="none" xmlns="http://www.w3.org/2000/svg">
<path fill-rule="evenodd" clip-rule="evenodd" d="M329.333 52.2701L277.736 86.8659C282.756 90.7812 285.566 95.0791 285.606 99.5581C285.707 109.929 271.061 119.023 248.238 124.708C304.401 117.02 343.787 97.8638 343.565 75.0959C343.486 66.9958 338.396 59.2629 329.333 52.2701ZM312.192 42.049C301.092 52.3685 278.64 73.2768 269.703 81.8635C260.818 77.2838 248.677 73.4389 234.346 70.7514L255.478 25.1558C277.887 29.1668 297.322 34.9881 312.192 42.049ZM232.596 21.822C218.479 20.2074 203.525 19.2733 188.05 19.1332C175.245 19.0188 162.81 19.4543 150.92 20.3786L161.421 67.5708C170.022 66.8159 179.1 66.4234 188.512 66.5039C200.673 66.6146 212.266 67.5004 223.007 68.9598L232.596 21.822ZM127.72 22.8888C103.059 26.3497 81.694 32.0304 65.5824 39.2563C76.4047 49.3232 99.1766 70.5396 108.832 79.79C118.965 74.9486 133.134 71.144 149.768 68.8692L127.72 22.8888ZM48.2734 49.0794C38.7931 56.0786 33.5279 63.9548 33.6095 72.3179C33.8317 95.0895 73.6174 114.961 129.966 123.654C107.004 117.559 92.1631 108.198 92.0566 97.8269C92.016 93.0862 95.1197 88.6273 100.607 84.6314L48.2734 49.0794Z" fill="#66757F"/>
<path fill-rule="evenodd" clip-rule="evenodd" d="M377.43 65.7391C377.43 54.268 353.076 0.656799 182.76 0.656494C-1.57652 0.656494 0.377857 61.2496 0.377857 61.2496V188.368C0.493571 199.619 10.992 210.371 26.887 219.794L52.0917 231.553C59.792 234.438 68.1971 237.095 77.2649 239.503L114.977 247.411C123.298 248.729 131.966 249.819 140.855 250.732C140.855 250.732 152.386 252.919 189.729 252.919C227.073 252.919 238.981 251.646 238.981 251.646C248.112 250.867 257.012 249.912 265.532 248.688L303.087 241.35C312.102 239.077 320.465 236.545 328.102 233.774L353.076 222.378C368.928 213.111 376.871 202.421 376.755 191.108C376.755 191.108 377.43 77.2101 377.43 65.7391ZM370.022 68.3918C370.357 101.728 289.399 128.018 189.191 127.122C88.9732 126.227 7.46793 98.4566 7.14337 65.1407C6.80867 31.8047 87.7764 5.51428 187.984 6.41008C288.182 7.31595 369.688 35.0658 370.022 68.3918ZM189.497 150.318C216.223 150.55 237.999 161.722 238.435 205.607C238.617 223.543 238.161 237.01 237.177 247.106C222.217 248.374 206.587 249.058 190.359 248.917C173.797 248.767 157.822 247.78 142.568 246.21C142.132 234.534 141.827 220.906 141.665 204.741C141.229 160.857 162.782 150.077 189.497 150.318ZM117.039 184.671L117.049 185.899V185.084L117.617 242.989C104.604 240.916 92.474 238.309 81.2563 235.319L80.7391 182.799L80.7289 182.125L80.6782 177.394L80.6579 175.804L80.6376 173.75V173.378C80.4247 151.426 116.816 162.729 117.039 184.671ZM298.367 175.331L298.377 175.914L298.367 175.723L298.976 237.121C287.819 239.949 275.739 242.365 262.767 244.237L262.189 186.332V185.97C261.966 164.027 298.144 153.388 298.367 175.331ZM32.0347 150.993C31.8217 129.051 56.113 140.243 56.3362 162.185C56.4429 173.159 56.4719 175.901 56.4713 175.901C56.4709 175.901 56.4593 174.861 56.4477 174.062L56.9752 227.619C47.715 224.117 39.53 220.302 32.6737 216.216L32.0347 151.406V150.993ZM322.567 176.015L322.445 164.571C322.232 142.629 346.321 131.869 346.534 153.811L347.183 218.712C340.398 222.708 332.294 226.402 323.105 229.763L322.567 176.015Z" fill="#66757F"/>
</svg>
